<svg height="512" viewBox="0 0 64 64" width="512" xmlns="http://www.w3.org/2000/svg"><g id="Flat"><g id="Stroke_copy_2" data-name="Stroke copy 2"><g><rect fill="#d0d8da" height="58" rx="4" width="46" x="3" y="3"/><path d="m42 53a30 30 0 0 1 -30-30v-20h-5a4 4 0 0 0 -4 4v50a4 4 0 0 0 4 4h38a4 4 0 0 0 4-4v-4z" fill="#93999a"/><path d="m8 8h36v18h-36z" fill="#aae1f9"/><path d="m8 8v2h30a4 4 0 0 1 4 4v12h2v-18z" fill="#57b7eb"/><path d="m26 22a13 13 0 0 1 -13-13v-1h-5v18h36v-4z" fill="#57b7eb"/><path d="m12 23v-15h-4v18h4.15c-.098-.987-.15-1.987-.15-3z" fill="#4891d3"/><g><path d="m8 30h6v6h-6z" fill="#aae1f9"/><path d="m8 36h6v-2.229a29.6 29.6 0 0 1 -1.17-3.771h-4.83z" fill="#57b7eb"/><path d="m19 30h6v6h-6z" fill="#aae1f9"/><path d="m8 40h6v6h-6z" fill="#57b7eb"/><path d="m19 40h6v6h-6z" fill="#aae1f9"/><g fill="#57b7eb"><path d="m8 51h6v6h-6z"/><path d="m19 51h6v6h-6z"/><path d="m24 35a4 4 0 0 1 -4-4v-1h-1v6h6v-1z"/></g><path d="m13 35a4 4 0 0 1 -4-4v-1h-1v6h6v-1z" fill="#4891d3"/><path d="m13 45a4 4 0 0 1 -4-4v-1h-1v6h6v-1z" fill="#4891d3"/><path d="m24 45a4 4 0 0 1 -4-4v-1h-1v6h6v-1z" fill="#57b7eb"/><path d="m13 56a4 4 0 0 1 -4-4v-1h-1v6h6v-1z" fill="#4891d3"/><path d="m24 56a4 4 0 0 1 -4-4v-1h-1v6h6v-1z" fill="#4891d3"/><path d="m22.745 46a30.11 30.11 0 0 1 -3.745-3.745v3.745z" fill="#4891d3"/></g><g><path d="m44 25a1 1 0 0 0 -1 1v6a1 1 0 0 0 2 0v-6a1 1 0 0 0 -1-1z" fill="#7ab92d"/><path d="m60.361 40.893a10.507 10.507 0 0 0 -10.507-11.893 8.562 8.562 0 0 0 -5.17 1.737l-.031.024a2.739 2.739 0 0 1 -3.306 0l-.031-.024a8.562 8.562 0 0 0 -5.17-1.737 10.507 10.507 0 0 0 -10.507 11.893 12.828 12.828 0 0 0 1.207 3.8l6.867 13.734a4.578 4.578 0 0 0 2.287 2.217 4.486 4.486 0 0 0 5.342-1.433l1.658-2.211 1.545 2.06a4.728 4.728 0 0 0 2.59 1.8 4.478 4.478 0 0 0 5.1-2.337l6.918-13.835a12.828 12.828 0 0 0 1.208-3.795z" fill="#f8664f"/><path d="m47 22h6a0 0 0 0 1 0 0 6 6 0 0 1 -6 6h-4a0 0 0 0 1 0 0v-2a4 4 0 0 1 4-4z" fill="#c4f236"/><path d="m34 34a23.1 23.1 0 0 1 .519-4.861 10.457 10.457 0 0 0 -8.88 11.754 12.828 12.828 0 0 0 1.207 3.8l6.867 13.734a4.578 4.578 0 0 0 2.287 2.217 4.486 4.486 0 0 0 5.342-1.433l1.658-2.211 1.545 2.06a4.728 4.728 0 0 0 2.59 1.8 4.478 4.478 0 0 0 5.1-2.337l.926-1.853a23 23 0 0 1 -19.161-22.67z" fill="#cc5144"/><path d="m48 25h-2a2 2 0 0 1 -1.966-1.662 3.969 3.969 0 0 0 -1.034 2.662v2h4a6 6 0 0 0 5.983-5.658 5.994 5.994 0 0 1 -4.983 2.658z" fill="#a1d51c"/><path d="m55.708 34.691a7.713 7.713 0 0 0 -5.854-2.691 1 1 0 0 0 0 2 5.716 5.716 0 0 1 4.338 1.995 5.107 5.107 0 0 1 1.225 4.145 1 1 0 0 0 .838 1.139.983.983 0 0 0 .152.012 1 1 0 0 0 .988-.85 7.081 7.081 0 0 0 -1.687-5.75z" fill="#f89c8d"/></g><g fill="#fcbc04"><path d="m18.707 14.293a1 1 0 0 0 -1.414 0l-2.293 2.293v-3.586a1 1 0 0 0 -2 0v8a1 1 0 0 0 2 0v-1.586l2.293 2.293a1 1 0 0 0 1.414-1.414l-2.293-2.293 2.293-2.293a1 1 0 0 0 0-1.414z"/><path d="m25 16a1 1 0 0 0 2 0 2 2 0 0 0 -2-2h-2a2 2 0 0 0 -2 2v4a2 2 0 0 0 2 2h2a2 2 0 0 0 2-2 1 1 0 0 0 -2 0h-2v-4z"/><path d="m35 20a1 1 0 0 1 -1-1v-3a2 2 0 0 0 -2-2h-3a1 1 0 0 0 0 2h3v1h-2a2 2 0 0 0 -2 2v1a2 2 0 0 0 2 2h1a2.981 2.981 0 0 0 2-.78 2.981 2.981 0 0 0 2 .78 1 1 0 0 0 0-2zm-4 0h-1v-1h2a1 1 0 0 1 -1 1z"/><path d="m39 12a1 1 0 0 0 -1 1v8a1 1 0 0 0 2 0v-8a1 1 0 0 0 -1-1z"/></g><path d="m23 22h2a1.928 1.928 0 0 0 .333-.034 12.926 12.926 0 0 1 -3.981-.837 2 2 0 0 0 1.648.871z" fill="#e59730"/><path d="m14 22a1 1 0 0 0 1-1v-1.586l2.293 2.293a1 1 0 0 0 1.414-1.414l-2.293-2.293.115-.115a12.933 12.933 0 0 1 -1.267-1.561l-.262.262v-.68a12.914 12.914 0 0 1 -1.584-3.7.981.981 0 0 0 -.416.794v8a1 1 0 0 0 1 1z" fill="#e59730"/></g></g></g></svg>