<svg id="Capa_1" enable-background="new 0 0 512 512" height="512" viewBox="0 0 512 512" width="512" xmlns="http://www.w3.org/2000/svg"><g><path d="m421.125 75.012-18.095-15c-40.954-30.772-91.86-49.012-147.03-49.012-53.18 0-102.398 16.951-142.559 45.735l-12.02 9.193c-55.172 44.924-90.421 113.377-90.421 190.072 0 53.192 16.959 102.419 45.754 142.585h398.492c28.795-40.166 45.754-89.393 45.754-142.585 0-71.691-30.796-136.185-79.875-180.988z" fill="#96d7fd"/><g><path d="m149.255 368.769.79 1.019.79-1.018c6.193-7.981 15.525-12.559 25.603-12.559 12.116 0 23.128 6.686 28.738 17.447l1.887-.462v-14.063c0-2.206 1.794-4 4-4h9.465l-34.318-34.318c-4.207-4.207-11.028-4.207-15.235 0l-34.319 34.319c-.884.884-1.571 1.888-2.084 2.955 5.729 2.044 10.818 5.699 14.683 10.68z" fill="#fed2a4"/></g><path d="m245.535 355.133h21.238c3.131-2.877 5.109-6.991 5.109-11.568 0-2.148-.427-4.233-1.271-6.198-.036-.083-12.151-21.739-12.151-21.739-.467-.834-1.351-1.352-2.306-1.352-.956 0-1.84.518-2.307 1.352 0 0-12.115 21.656-12.151 21.74-.843 1.964-1.27 4.049-1.27 6.197 0 4.577 1.978 8.691 5.109 11.568z" fill="#ffd766"/><path d="m257.659 354.133c-2.55-2.792-4.115-6.496-4.115-10.568 0-2.148.427-4.233 1.27-6.197.022-.051 4.404-7.889 7.899-14.138-2.321-4.151-4.252-7.602-4.252-7.602-.467-.834-1.351-1.352-2.306-1.352-.956 0-1.84.518-2.307 1.352 0 0-12.115 21.656-12.151 21.74-.843 1.964-1.27 4.049-1.27 6.197 0 4.071 1.568 7.773 4.114 10.568z" fill="#fac600"/><g><path d="m321.036 334.173c7.812 0 15.263 3.367 20.441 9.237l.75.85.75-.85c5.178-5.871 12.629-9.237 20.441-9.237s15.263 3.367 20.441 9.237l.75.85.75-.85c5.178-5.871 12.629-9.237 20.441-9.237 2.323 0 4.578.294 6.732.843.218-1.414.332-2.862.332-4.336 0-15.605-12.65-28.255-28.255-28.255-8.442 0-16.014 3.707-21.191 9.576-5.177-5.869-12.749-9.576-21.191-9.576-15.605 0-28.255 12.65-28.255 28.255 0 1.475.114 2.923.332 4.336 2.154-.549 4.409-.843 6.732-.843z" fill="#09a76d"/><path d="m301.247 355.133c2.206 0 4 1.794 4 4v5.048h17.969l-.075-1.07c-.388-5.509.066-11.011 1.35-16.352.739-3.074 3.487-5.221 6.684-5.221.925 0 1.832.185 2.694.55l53.083 22.489h46.924c.115-1.034.179-2.084.179-3.149 0-15.605-12.65-28.255-28.255-28.255-8.442 0-16.014 3.707-21.191 9.576-5.177-5.869-12.749-9.576-21.191-9.576s-16.014 3.707-21.191 9.576c-5.177-5.869-12.749-9.576-21.191-9.576-13.44 0-24.68 9.387-27.542 21.96z" fill="#017b4e"/></g><path d="m89.165 435.381c43.742 40.703 102.372 65.619 166.835 65.619s123.093-24.916 166.835-65.619z" fill="#883f2e"/><path d="m181.501 135.401c1.807-1.807 3.789-3.376 5.898-4.708l-73.959-73.959c-4.104 2.941-8.11 6.01-12.02 9.193l75.378 75.378c1.327-2.108 2.893-4.093 4.703-5.904z" fill="#a44f3e"/><g><path d="m237.681 172c4.91-12.477 2.329-27.219-7.757-37.305-13.567-13.567-35.563-13.567-49.13 0-10.086 10.086-12.667 24.829-7.757 37.305z" fill="#fe860a"/></g><path d="m193.56 171c-4.391-12.257-1.683-26.488 8.134-36.305 4.092-4.092 8.952-6.94 14.115-8.564-11.955-3.76-25.54-.912-35.016 8.564-9.818 9.818-12.526 24.048-8.134 36.305z" fill="#fe7701"/><g><path d="m96.47 368.77.79 1.018.79-1.019c6.193-7.981 15.525-12.559 25.603-12.559s19.41 4.578 25.603 12.559l.79 1.019.79-1.018c4.023-5.185 9.375-8.921 15.391-10.912-.468-1.787-1.391-3.479-2.792-4.879l-34.319-34.319c-4.207-4.207-11.028-4.207-15.235 0l-34.319 34.319c-1.125 1.125-1.939 2.44-2.463 3.839 7.627 1.48 14.479 5.648 19.371 11.952z" fill="#fed2a4"/></g><g><g><path d="m368.268 356.661-38.715-83.708c-4.123 3.771-8.488 7.196-13.061 10.253l29.634 64.075z" fill="#fff"/></g><g><path d="m150.045 369.856c2.629-3.69 6.008-6.808 9.918-9.128l35.854-77.522c-4.573-3.057-8.938-6.481-13.061-10.253l-41.054 88.765c3.248 2.188 6.073 4.952 8.343 8.138z" fill="#fff"/></g></g><g><g><path d="m338.779 75.012h82.345c-5.785-5.281-11.823-10.287-18.095-15h-64.25z" fill="#a44f3e"/></g><g><path d="m334.779 37.044h-15.046v60.935h15.046c2.761 0 5-2.239 5-5v-50.935c0-2.761-2.238-5-5-5z" fill="#fff"/></g><g><path d="m265.75 141.25c6.145.112 11.161-4.835 11.161-10.954v-10.628c0-6.032 4.719-11.207 10.75-11.317 6.144-.112 11.161 4.835 11.161 10.954v52.695h21.911v-134.956h-60.733c-2.761 0-5 2.239-5 5v87.889c0 6.032 4.719 11.207 10.75 11.317z" fill="#ffd766"/></g><g><path d="m268 129.933v-87.889c0-2.761 2.239-5 5-5h-13c-2.761 0-5 2.239-5 5v87.889c0 6.032 4.719 11.207 10.75 11.317 2.54.047 4.88-.781 6.76-2.19-2.744-2.085-4.51-5.443-4.51-9.127z" fill="#fac600"/></g></g><path d="m306.247 398.585v-39.452c0-2.761-2.239-5-5-5h-90.185c-2.761 0-5 2.239-5 5v39.452z" fill="#fff"/><path d="m209.833 388.605c0 3.112-.435 6.122-1.231 8.98h29.214v-38.452c0-2.761 2.239-5 5-5h-31.753c-2.761 0-5 2.239-5 5v14.062c2.403 4.612 3.77 9.85 3.77 15.41z" fill="#eaf6ff"/><g><path d="m102.744 398.585c.986-3.152 1.518-6.504 1.518-9.98 0-18.444-14.951-33.395-33.395-33.395-18.443 0-33.395 14.951-33.395 33.395 0 3.477.532 6.829 1.518 9.98z" fill="#fd4755"/><path d="m59.458 397.585c-.798-2.86-1.247-5.865-1.247-8.98 0-14.823 9.66-27.382 23.026-31.745-3.265-1.066-6.748-1.65-10.369-1.65-18.443 0-33.395 14.951-33.395 33.395 0 3.112.435 6.122 1.231 8.98z" fill="#e41f2d"/><path d="m155.529 398.585c.986-3.152 1.518-6.504 1.518-9.98 0-18.444-14.951-33.395-33.395-33.395-18.443 0-33.395 14.951-33.395 33.395 0 3.477.532 6.829 1.518 9.98z" fill="#fd4755"/><path d="m112.458 397.585c-.798-2.86-1.247-5.865-1.247-8.98 0-14.783 9.609-27.313 22.918-31.709-3.296-1.089-6.815-1.686-10.476-1.686-18.443 0-33.395 14.951-33.395 33.395 0 3.112.435 6.122 1.231 8.98z" fill="#e41f2d"/><path d="m208.315 398.585c.986-3.152 1.518-6.504 1.518-9.98 0-18.444-14.951-33.395-33.395-33.395-18.443 0-33.395 14.951-33.395 33.395 0 3.477.532 6.829 1.518 9.98z" fill="#fd4755"/><path d="m165.247 397.585c-.798-2.86-1.247-5.865-1.247-8.98 0-14.782 9.608-27.312 22.916-31.708-3.297-1.089-6.817-1.687-10.479-1.687-18.443 0-33.395 14.951-33.395 33.395 0 3.112.435 6.122 1.231 8.98z" fill="#e41f2d"/></g><path d="m288.739 398.585h84.667c6.173-7.374 10.461-16.381 12.108-26.282.795-4.781-2.952-9.123-7.799-9.123h-93.284c-4.847 0-8.594 4.342-7.799 9.123 1.647 9.902 5.934 18.909 12.107 26.282z" fill="#fe7701"/><path d="m287.93 397.585h24.471c-5.736-7.182-9.721-15.822-11.295-25.282-.795-4.781 2.952-9.123 7.799-9.123h-24.475c-4.847 0-8.594 4.342-7.799 9.123 1.574 9.46 5.564 18.099 11.299 25.282z" fill="#f46700"/><path d="m338.376 398.585h77.675c2.887-2.857 5.487-6.062 7.724-9.587 2.597-4.092.84-9.552-3.623-11.442l-85.894-36.389c-4.463-1.891-9.607.645-10.74 5.358-4.557 18.962 1.369 38.698 14.858 52.06z" fill="#fe860a"/><path d="m379.788 398.585h85.327c5.997-7.299 10.16-16.161 11.778-25.886.795-4.781-2.952-9.123-7.799-9.123h-93.284c-4.847 0-8.594 4.342-7.799 9.123 1.617 9.725 5.781 18.587 11.777 25.886z" fill="#fe7701"/><path d="m378.995 397.585h34.997c-5.568-7.102-9.437-15.599-10.982-24.886-.795-4.781 2.952-9.123 7.799-9.123h-35c-4.847 0-8.594 4.342-7.799 9.123 1.546 9.287 5.418 17.782 10.985 24.886z" fill="#f46700"/><g><path d="m507 436.381h-502c-2.761 0-5-2.239-5-5v-28.795c0-2.761 2.239-5 5-5h502c2.761 0 5 2.239 5 5v28.795c0 2.761-2.239 5-5 5z" fill="#a44f3e"/></g><path d="m146.289 193.7c.62 60.152 49.566 108.725 109.865 108.725s109.245-48.573 109.866-108.725z" fill="#e41f2d"/><path d="m188.288 194.7h-41.986c1.149 59.69 49.888 107.725 109.853 107.725 7.177 0 14.19-.696 20.983-2.01-49.964-9.662-87.836-53.172-88.85-105.715z" fill="#c41926"/><g><path d="m375.191 194.7h-238.073c-2.975 0-5.386-2.412-5.386-5.386v-12.927c0-2.975 2.412-5.386 5.386-5.386h238.073c2.975 0 5.386 2.412 5.386 5.386v12.927c0 2.974-2.411 5.386-5.386 5.386z" fill="#fd4755"/></g><path d="m184 189.313v-12.927c0-2.975 2.411-5.386 5.386-5.386h-52.268c-2.975 0-5.386 2.411-5.386 5.386v12.927c0 2.975 2.412 5.386 5.386 5.386h52.268c-2.975.001-5.386-2.411-5.386-5.386z" fill="#e41f2d"/></g></svg>