<svg id="Layer_5" enable-background="new 0 0 64 64" height="512" viewBox="0 0 64 64" width="512" xmlns="http://www.w3.org/2000/svg"><g><g><g><path d="m17 54c0 2.21 1.79 4 4 4h-1.76c-.81 0-1.6-.25-2.26-.7l-14.98-10.3 19 3c-1.1 0-2.1.45-2.83 1.17-.72.73-1.17 1.73-1.17 2.83z" fill="#a0d468"/></g><g><path d="m54 16c0 2.21 1.79 4 4 4h-1.26c-1.11 0-2.17-.46-2.93-1.28l-11.81-12.72 16 6c-1.1 0-2.1.45-2.83 1.17-.72.73-1.17 1.73-1.17 2.83z" fill="#a0d468"/></g><g><path d="m62 30v3l-2 3h-11.19c-1.12 0-2.16.59-2.74 1.55l-1.14 1.9c-.58.96-1.62 1.55-2.74 1.55-.88 0-1.68.36-2.25.94-.58.57-.94 1.37-.94 2.25v13.81h-6v-6.62c0-1.41-.92-2.66-2.28-3.06l-5.48-1.65c-.66-.2-1.22-.61-1.62-1.13-.39-.53-.62-1.18-.62-1.88 0-1.53-1.11-2.85-2.63-3.1l-6.3-1.05c-.89-.15-1.65-.6-2.2-1.25-.55-.64-.87-1.48-.87-2.37 0-1.19.57-2.3 1.54-2.99l5.46-3.9v-6l-8.41-3.36c-.99-.4-1.69-1.28-1.85-2.33l-1.74-11.31h7l3.11 4.66c.56.84 1.49 1.34 2.5 1.34h13.39c1.66 0 3 1.34 3 3 0 .83-.34 1.58-.88 2.12s-1.29.88-2.12.88h-1c-2.21 0-4 1.79-4 4 0 1.1.45 2.1 1.17 2.83.73.72 1.73 1.17 2.83 1.17h14.17c1.81 0 3.55.72 4.83 2s3.02 2 4.83 2z" fill="#69d6f4"/></g><g><path d="m33 58h-12c-2.21 0-4-1.79-4-4 0-1.1.45-2.1 1.17-2.83.73-.72 1.73-1.17 2.83-1.17l-19-3v-15l3-2-3-3v-21h4l1.74 11.31c.16 1.05.86 1.93 1.85 2.33l8.41 3.36v6l-5.46 3.9c-.97.69-1.54 1.8-1.54 2.99 0 .89.32 1.73.87 2.37.55.65 1.31 1.1 2.2 1.25l6.3 1.05c1.52.25 2.63 1.57 2.63 3.1 0 .7.23 1.35.62 1.88.4.52.96.93 1.62 1.13l5.48 1.65c1.36.4 2.28 1.65 2.28 3.06z" fill="#b4dd7f"/></g><g><path d="m62 16v14h-7.17c-1.81 0-3.55-.72-4.83-2s-3.02-2-4.83-2h-14.17c-1.1 0-2.1-.45-2.83-1.17-.72-.73-1.17-1.73-1.17-2.83 0-2.21 1.79-4 4-4h1c.83 0 1.58-.34 2.12-.88s.88-1.29.88-2.12c0-1.66-1.34-3-3-3h-13.39c-1.01 0-1.94-.5-2.5-1.34l-3.11-4.66h29l11.81 12.72c.76.82 1.82 1.28 2.93 1.28h1.26c-2.21 0-4-1.79-4-4 0-1.1.45-2.1 1.17-2.83.73-.72 1.73-1.17 2.83-1.17s2.1.45 2.83 1.17c.72.73 1.17 1.73 1.17 2.83z" fill="#b4dd7f"/></g><g><path d="m62 39v19h-23v-13.81c0-.88.36-1.68.94-2.25.57-.58 1.37-.94 2.25-.94 1.12 0 2.16-.59 2.74-1.55l1.14-1.9c.58-.96 1.62-1.55 2.74-1.55h11.19z" fill="#e6e9ed"/></g><g><circle cx="51" cy="47" fill="#ff826e" r="5"/></g></g><g><path d="m63 16c0-2.672-2.112-4.842-4.751-4.975l-16.068-6.025h-41.181v22.414l2.43 2.431-2.43 1.62v16.061l15.41 10.595c.838.575 1.817.879 2.832.879h1.758 42v-20.303l-1.798-2.697 1.798-2.697zm-2 0v13h-6.171c-1.557 0-3.021-.606-4.122-1.707-1.478-1.479-3.444-2.293-5.536-2.293h-14.171c-1.654 0-3-1.346-3-3s1.346-3 3-3h1c2.206 0 4-1.794 4-4s-1.794-4-4-4h-13.395c-.67 0-1.292-.333-1.664-.891l-2.073-3.109h26.695l11.517 12.402c.942 1.015 2.278 1.598 3.664 1.598h1.256 1v-2h-1c-1.654 0-3-1.346-3-3s1.346-3 3-3 3 1.346 3 3zm-8 0c0 .145.031.281.043.422l-7.427-7.998 9.453 3.545c-1.248.91-2.069 2.372-2.069 4.031zm-37 38c0 .567.115 1.103.29 1.611l-10.087-6.935 11.276 1.78c-.913.907-1.479 2.16-1.479 3.544zm2 0c0-1.654 1.346-3 3-3s3 1.346 3 3v1h2v-1c0-2.704-2.161-4.9-4.845-4.984l.001-.003-18.156-2.867v-13.61l3.57-2.38-3.57-3.57v-19.586h2.142l1.609 10.459c.214 1.392 1.159 2.582 2.467 3.106l7.782 3.112v4.808l-5.043 3.603c-1.226.875-1.957 2.296-1.957 3.802 0 2.293 1.642 4.231 3.904 4.608l6.306 1.051c1.037.173 1.79 1.061 1.79 2.113 0 1.843 1.186 3.438 2.952 3.968l5.485 1.646c.935.28 1.563 1.124 1.563 2.099v5.625h-11c-1.654 0-3-1.346-3-3zm43 3h-21v-12.808c0-1.209.983-2.192 2.192-2.192 1.464 0 2.842-.78 3.595-2.036l1.14-1.9c.394-.656 1.115-1.064 1.881-1.064h10.657l1.535 2.303zm-1.535-22h-10.657c-1.464 0-2.842.78-3.595 2.036l-1.14 1.9c-.394.656-1.115 1.064-1.881 1.064-2.311 0-4.192 1.881-4.192 4.192v12.808h-4v-5.625c0-1.866-1.201-3.479-2.988-4.016l-5.485-1.646c-.913-.273-1.527-1.098-1.527-2.051 0-2.034-1.456-3.752-3.461-4.086l-6.306-1.051c-1.294-.216-2.233-1.324-2.233-2.635 0-.861.418-1.674 1.119-2.174l5.881-4.201v-7.192l-9.038-3.615c-.654-.262-1.127-.857-1.234-1.553l-1.562-10.155h5.299l2.813 4.219c.743 1.115 1.988 1.781 3.327 1.781h13.395c1.103 0 2 .897 2 2s-.897 2-2 2h-1c-2.757 0-5 2.243-5 5s2.243 5 5 5h14.171c1.557 0 3.021.606 4.122 1.707 1.478 1.479 3.444 2.293 5.536 2.293h6.171v1.697z"/><path d="m52 41.09v-2.09h-2v2.09c-2.507.423-4.486 2.403-4.91 4.91h-2.09v2h2.09c.423 2.507 2.403 4.486 4.91 4.91v2.09h2v-2.09c2.507-.423 4.486-2.403 4.91-4.91h2.09v-2h-2.09c-.424-2.507-2.403-4.486-4.91-4.91zm2.858 4.91h-2.858v-2.858c1.399.364 2.494 1.459 2.858 2.858zm-4.858-2.858v2.858h-2.858c.364-1.399 1.459-2.494 2.858-2.858zm-2.858 4.858h2.858v2.858c-1.399-.364-2.494-1.459-2.858-2.858zm4.858 2.858v-2.858h2.858c-.364 1.399-1.459 2.494-2.858 2.858z"/></g></g></svg>